<svg id="Layer_1" data-name="Layer 1" xmlns="http://www.w3.org/2000/svg" viewBox="0 0 2975.08 1998.35"><defs><style>.cls-1{fill:#015380;}.cls-2{fill:#13678a;}.cls-3{fill:#0177b7;}.cls-4{fill:#03a7ff;}.cls-5{fill:#028ed9;}.cls-6{fill:#03186b;}</style></defs><path class="cls-1" d="M1767,305.17l-36.1-16.9-229.4-106.9c-17.8-8.3-32.4-31.1-32.4-50.7l-.3-107.1C1468.7,4,1482.5-4,1499.5,5.77l239.78,138.5c17,9.8,30.9,33.9,31,53.5l.3,73.6C1770.74,291,1769,306.17,1767,305.17Z"/><path class="cls-1" d="M1728.44,551.27l-224.5-76.2c-18.6-6.3-33.8-27.5-33.9-47.1l-.72-203.47c-.1-19.6,14.4-28.9,32.2-20.7l221,102.4c17.8,8.2,51.6,16.6,48.4,57.9l.6,166.3C1769.64,561.27,1747,557.67,1728.44,551.27Z"/><path class="cls-1" d="M1725.54,835.67l-219.1-36.3c-19.3-3.2-35.2-21.8-35.3-41.5l-.8-237.2c-.1-19.6,15.1-30.5,33.7-24.3l218.1,73.38c18.6,6.3,52,18.8,49.8,52.3l.7,185.7C1771.14,842.5,1744.84,839,1725.54,835.67Z"/><path class="cls-1" d="M1541,1048.27c-52.6-1-69-18-69-37.6l-.5-160.8c-.1-19.6,15.7-33.1,35.1-29.9l215.8,35.2c19.4,3.1,53.4,5.6,50.7,43.8l.5,120.4a34.28,34.28,0,0,1-33.9,34.6h-1.6Z"/><path class="cls-1" d="M1428.74,5.37c16.1-11.2,29.3-4.3,29.3,15.3V125.5c1.3,32.3-18.9,45-36.4,53.9l-143.2,72.5c-17.5,8.9-31.9.1-31.9-19.5l-.2-64.5c-.1-19.6,13-44.8,29.2-56Z"/><path class="cls-1" d="M1424.54,493.37c18.5-6.7,33.5,3.8,33.5,23.4v239c-.2,30.1-17.6,38.8-36.9,42.3l-137.4,24.8c-19.3,3.5-35.2-9.7-35.2-29.3l-.7-200c-.1-19.6,14.9-41.1,33.4-47.8Z"/><path class="cls-1" d="M1422.94,818.27c19.3-3.4,35.1,9.8,35.1,29.4V1011c0,19.6-15.5,36.4-61.3,37.5h-1l-71.3,2.2-39.3,1.3a34.42,34.42,0,0,1-35.7-33.07h0v-1.4l-.5-132.8c-.1-19.6,15.7-38.4,35-41.8Z"/><path class="cls-1" d="M1397.32,1068.67c48.2-3,60.7,14.3,60.7,34v88.2c0,19.6-9.2,34.9-20.4,33.9l-55.9-4.8-55.4-4.7-55.9-4.8c-11.2-.9-20.4-17.8-20.5-37.4l-.2-64.8a36.86,36.86,0,0,1,35.5-36.6l39.8-1.1c19.6-.5,51.7-1.4,71.3-1.9Z"/><path class="cls-2" d="M1206.44,456.75c17.9-8,32.6,1.5,32.6,21.1v26.63c0,19.6-9.3,39.1-20.6,43.3l-146.3,54.4c-30,12.5-42.9,16.4-45.1-11.6l-1-29c0-11.5,3.2-21.6,25.1-34.3C1064.74,519.5,1206.44,456.75,1206.44,456.75Z"/><path class="cls-2" d="M1209.64,855.75c17.5-3.1,29.4,10.9,29.4,30.5v131.5c0,9.2-6.3,25.4-17.6,32.1-12.7,7.6-31.1,5.1-41.5,5.4l-73.3,2.5c-19.6.7-45.3,1.6-57.1,2s-21.5-15.3-21.6-34.9l-.4-102c0-14.7-1.8-28.1,18.4-37.2,6.7-3,21.7-5.2,32.2-7.2,19.1-3.3,50.3-8.7,69.5-12C1166.54,863.37,1199.24,857.67,1209.64,855.75Z"/><path class="cls-2" d="M1180.44,1074.37c51.2.4,58.6,14.5,58.6,34.2v63.6c0,19.6-6.9,35.1-15.3,34.4l-50.8-4.3-78.4-6.6-50.8-4.3c-8.4-.7-15.3-17.3-15.4-37l-.2-40.5c-.1-19.6,9.6-35.9,21.6-36.2l57.3-1.4Z"/><path class="cls-3" d="M2058.84,908.75l49,7.7c11.1,1.7,20.1,12.3,20,23.5l-.5,106.6a19.63,19.63,0,0,1-19.56,19.7h-.94l-23-.8c-52.6-1.9-137.4-4.7-137.4-4.7a21.36,21.36,0,0,1-20.4-21.1V908.17c0-11.2,9-18.9,20.1-17.2C1946.24,891.07,2014.54,901.87,2058.84,908.75Z"/><path class="cls-3" d="M2109.64,698.75c10.6,3.5,19.3,15.5,19.3,26.8l-.8,158.2c-.1,11.2-9.1,18.8-20.2,16.9,0,0-24.3-4.2-46.4-8-45.2-7.8-115.3-19.7-115.3-19.7-11-1.9-20.1-12.6-20.1-23.8V658.5c0-11.2,8.7-17.5,19.3-14l17.3,5.7,38.7,12.8,36.7,12.2,38.7,12.8Z"/><path class="cls-4" d="M713,749.75c10.6-3.8,19.2,2.4,19.2,13.6v141.2c0,11.2-9,22.1-20,24.2l-52.7,10c-11,2.1-20-5.3-20.1-16.6l-.2-125.9c0-11.2,8.6-23.4,19.2-27.2Z"/><path class="cls-4" d="M712.14,940.67c11-1.8,20.1,5.8,20.1,17v93.83a21.53,21.53,0,0,1-20.4,21.2l-51.6,2.1a19.55,19.55,0,0,1-20.4-18.5v-1.1l-.2-82.3c0-11.2,9-21.9,20-23.7Z"/><path class="cls-4" d="M640,1106.17a20.68,20.68,0,0,1,20.28-20.67l51.6-.9a20.11,20.11,0,0,1,20.4,19.6v40.3c0,11.2-2.3,20.2-5.1,19.9l-25.4-2.1-31.2-2.7-25.4-2.1c-2.8-.2-5.1-9.6-5.1-20.8Z"/><path class="cls-4" d="M612.44,957.17c11.1-1.8,20.1,5.9,20.1,17.1v81.4a21.62,21.62,0,0,1-20.4,21.3l-39,1.7a19.6,19.6,0,0,1-20.4-18.5v-1l-.3-71.7c0-11.2,9-21.8,20-23.7Z"/><path class="cls-4" d="M552.94,1107.5a20.69,20.69,0,0,1,20.3-20.7l39-.6a20,20,0,0,1,20.4,19.55h0v30.11c0,11.2-1.8,20.2-4.1,20l-24.4-2.1-22.5-1.9-24.4-2.1c-2.2-.2-4.1-9.5-4.1-20.7Z"/><path class="cls-4" d="M2371.84,974.27c11.1,1.8,20.1,12.3,20,23.6l-.4,58.9c-.1,11.2-5.6,20.2-12.2,19.9l-6-.2c-39.1-1.6-97-3.8-97-3.8a21.62,21.62,0,0,1-20.4-21.2v-75c0-11.2,9.1-19,20.1-17.2Z"/><path class="cls-3" d="M998.14,247.75c9.5-5.9,17.3-1.6,17.3,9.6v107.9c0,11.2-8.2,24.5-18.1,29.7l-10.7,5.5c-10,5.1-26.3,13.5-36.3,18.6l-25.6,13.1c-10,5.1-18.2.1-18.2-11.1l-.1-96.1c0-11.2,7.8-25.2,17.3-31.1Z"/><path class="cls-3" d="M997.24,414.17c10-5,18.3.1,18.3,11.3V603c0,11.2-8.6,23.6-19.1,27.5l-7.9,2.9-38.2,14.3L926,656.78c-10.5,3.9-19.1-2-19.1-13.2l-.2-164.1c0-11.2,8.2-24.5,18.2-29.4l32.9-16.3c10-5,26.5-13.1,36.5-18.1Z"/><path class="cls-3" d="M996.32,648.67c10.5-3.8,19.2,2.3,19.2,13.5v189.4c0,11.2-9,22.1-20,24.1l-4.5.8-40.1,7.4-23.5,4.4c-11,2-20-5.4-20.1-16.7l-.2-170.5c0-11.2,8.6-23.5,19.2-27.3l29.8-10.7,38.3-13.8Z"/><path class="cls-3" d="M995.44,892.87c11-1.9,20.1,5.7,20.1,16.9v131c0,11.2-5.5,21.8-37.3,21.7l-31.6,1.2-26.6,1c-3.4.1-12.5-8.7-12.5-19.9l-.2-116.4c0-11.2,9-21.9,20.1-23.8l26.3-4.5c11-1.9,29.1-5,40.2-6.9Z"/><path class="cls-5" d="M2139.64,1102.87a20.07,20.07,0,0,1,20-20h.4l62.1,1.1a20.71,20.71,0,0,1,20.3,20.7v37.2c.2,20.9-8.9,22.4-35.6,23.4l-31.6,2.7c-5,.4-18.2,2.5-25,.1-8.6-3-10.6-11.2-10.6-17.4v-47.8Z"/><path class="cls-5" d="M2139.64,729c0-11.2,8.7-17.5,19.4-14l64.6,21.2c10.6,3.5,19.4,15.5,19.3,26.7l-.2,140.8c0,11.2-9.1,18.8-20.1,16.9l-62.9-11c-11-1.9-20.1-12.7-20.1-23.9Z"/><path class="cls-5" d="M2139.64,517.75c0-11.2,8.3-16.6,18.6-11.9l66.5,30.2c10.2,4.6,18.5,17.6,18.5,28.8l-.2,143.5c0,11.2-8.7,17.4-19.3,13.7l-64.9-22.6c-10.6-3.7-19.2-15.9-19.2-27.1Z"/><path class="cls-5" d="M2156.74,276.87c-9.4-6.1-17-2-17,9.2V460.5c0,11.2,8.3,24.3,18.4,29.1l66.8,31.8c10.1,4.8,18.4-.4,18.4-11.6l.2-155.6c0-11.2-7.6-25.4-17-31.5Z"/><path class="cls-2" d="M1791.14,1095.37a19.79,19.79,0,0,1,19.68-19.9h.62l77.4,1.8a21,21,0,0,1,20.3,20.8l-.1,72.1c0,11.2-6.9,21-15.3,21.7l-35.6,3-16.3,1.4-35.6,3c-8.4.7-15.3-7.9-15.3-19.1v-84.8Z"/><path class="cls-2" d="M1888,881.75c11.1,1.8,21.4,12.6,21.4,23.8l-.2,133.5a19.59,19.59,0,0,1-19.46,19.7h-.94l-77.4-2.5a21.3,21.3,0,0,1-20.4-21V886.67c0-11.2,9.1-18.9,20.1-17.2Z"/><path class="cls-2" d="M1887.32,625.17c10.6,3.5,22.4,16.6,22.4,27.8l-.2,193.3c0,11.2-9.1,18.9-20.1,17l-78.2-13.2c-11.1-1.9-20.1-12.6-20.1-23.8V613.5c0-11.2,8.7-17.5,19.3-13.9Z"/><path class="cls-2" d="M1887.24,382c10.2,4.6,22.7,19.6,22.7,30.9l-.2,180.1c0,11.2-8.7,17.4-19.3,13.8l-80.1-27.4c-10.6-3.6-19.3-15.8-19.3-27V358.17c0-11.2,8.3-16.5,18.5-11.9Z"/><path class="cls-5" d="M875.94,691.75c10.5-3.8,19.2,2.3,19.2,13.5v168.5c0,11.2-9,22.1-20,24.1l-113.5,21.4c-11,2.1-20-5.4-20.1-16.6l-.3-142.5c0-11.2,8.6-23.4,19.2-27.2Z"/><path class="cls-5" d="M741.94,1104.37a20.91,20.91,0,0,1,20.3-20.7l112.5-2.2a20,20,0,0,1,20.4,19.5v57.4c0,11.2-3.4,20.1-7.6,19.7l-28-2.4-81.9-7-28-2.4c-4.2-.4-7.7-9.8-7.7-21Z"/><path class="cls-6" d="M326.2,1780.07v-354.9H322l-69.3,354.9H163.8l-67.9-354.9H90.3v354.9H0v-481.6H145.6l63,333.2h4.9l62.3-333.2H419.3v481.6Z"/><path class="cls-6" d="M579.31,1764.32q-30.81-21.35-38.5-68.6t-7.7-156.45q0-109.89,7.7-156.8t38.5-68.25q30.8-21.35,103.6-21.35t103.6,21.35q30.79,21.36,38.5,68.25t7.7,156.8q0,109.2-7.7,156.45t-38.5,68.6q-30.81,21.36-103.6,21.35T579.31,1764.32Zm141.4-71q9.79-7.69,12.6-37.8t2.8-116.2q0-86.1-2.8-116.2t-12.6-37.8q-9.81-7.69-37.8-7.7t-37.8,7.7q-9.81,7.71-12.6,37.8t-2.8,116.2q0,86.1,2.8,116.2t12.6,37.8q9.79,7.71,37.8,7.7t37.8-7.75Z"/><path class="cls-6" d="M1153,1780.07l-112-263.9h-2.8v263.9H946.5v-481.6h93.1l104.3,243.6h3.5v-243.6h92.4v481.6Z"/><path class="cls-6" d="M1424.33,1780.07V1386h-91v-87.5h278.6V1386h-91v394.1Z"/><path class="cls-6" d="M1705.45,1780.07v-481.6h233.8v84.7h-137.2v111.3h118.3v84.7h-118.3v116.2h137.2v84.7Z"/><path class="cls-6" d="M2245.56,1780.07l-46.9-168h-51.8v168h-96.6v-481.6h162.4q51.8,0,78.05,17.5t35.35,50.4q9.09,32.91,9.1,88.2,0,52.5-9.45,86.8t-38.15,51.8l58.1,186.9Zm-23.1-256.55q9.79-5.25,12.95-19.6t3.15-48.65q0-33.6-3.15-47.6t-12.95-19.25q-9.81-5.25-32.9-5.25h-42.7v145.6h42.7Q2212.66,1528.77,2222.46,1523.52Z"/><path class="cls-6" d="M2446.87,1780.07v-481.6h95.9v481.6Zm2.1-525v-3.5l37.1-98.7h89.6v3.5l-55.3,98.7Z"/><path class="cls-6" d="M2877.08,1780.07l-18.9-98.7h-107.8l-18.9,98.7h-95.9l99.4-481.6h140.7l99.4,481.6Zm-70.7-390.6h-4.2l-37.8,208.6h79.1Z"/><path class="cls-6" d="M396.11,1997.35a87.09,87.09,0,0,1-12.7,1q-18.8,0-27.6-6.2t-11.7-20.6q-2.89-14.4-2.9-43.6,0-29,3-43.5t11.9-20.7q8.89-6.2,27.3-6.2a95.69,95.69,0,0,1,13.1.9,46.65,46.65,0,0,1,10.1,2.3v22.45a159.51,159.51,0,0,0-17.6-1.4q-10.2,0-14.1,2.7t-5,11.5q-1.1,8.8-1.1,32t1.1,32q1.09,8.8,5,11.5t14.1,2.7a114.15,114.15,0,0,0,18-1.4V1995A67.62,67.62,0,0,1,396.11,1997.35Z"/><path class="cls-6" d="M500.09,1996.75V1940.2h-28.2v56.6h-27.4V1859.2h27.4v55.6h28.2v-55.6h27.4v137.6Z"/><path class="cls-6" d="M630,1996.75l-5.4-28.2H593.8l-5.4,28.2H561l28.4-137.6h40.2l28.4,137.6ZM609.8,1885.2h-1.2l-10.8,59.6h22.6Z"/><path class="cls-6" d="M784.64,1996.75v-101.4h-1.2l-19.8,101.4h-25.4l-19.44-101.4h-1.6v101.4H691.4V1859.2H733l18,95.2h1.4l17.8-95.2h41v137.6Z"/><path class="cls-6" d="M853.52,1859.2h47.2q16.2,0,24.3,8.6t8.1,26q0,14.6-4.4,22.3t-13.8,10.1v.8q10.4,2.6,14.9,10t4.5,23q0,18.2-7.8,27.5t-25.8,9.3h-47.2Zm47.7,55a7,7,0,0,0,3.8-4.6,35.41,35.41,0,0,0,1.1-10.2q0-7.2-1-10.5a6.47,6.47,0,0,0-3.6-4.4c-1.73-.73-4.47-1.1-8.2-1.1h-12.6v32h12.6A20.24,20.24,0,0,0,901.22,1914.2Zm.9,57.2a6.84,6.84,0,0,0,3.6-4.6q1-3.4,1-10.8a43,43,0,0,0-1-10.9,6.81,6.81,0,0,0-3.7-4.7,20.86,20.86,0,0,0-8.1-1.2h-13.2v33.4h13.2c3.73,0,6.47-.4,8.2-1.25Z"/><path class="cls-6" d="M972.6,1996.75V1859.2h66.8v24.2h-39.2v31.8H1034v24.2h-33.8v33.2h39.2v24.2Z"/><path class="cls-6" d="M1134.07,1996.75l-13.4-48h-14.8v48h-27.6V1859.2h46.4q14.8,0,22.3,5a24.41,24.41,0,0,1,10.1,14.4q2.6,9.4,2.6,25.2,0,15-2.7,24.8a24.1,24.1,0,0,1-10.9,14.8l16.6,53.4Zm-6.6-73.3q2.8-1.5,3.7-5.6t.9-13.9q0-9.6-.9-13.6t-3.7-5.5c-1.87-1-5-1.5-9.4-1.5h-12.2V1925h12.2Q1124.67,1925,1127.47,1923.45Z"/><path class="cls-6" d="M1330.86,1992.25q-8.8-6.11-11-19.6t-2.2-44.7q0-31.4,2.2-44.8t11-19.5q8.79-6.11,29.6-6.1t29.6,6.1q8.79,6.11,11,19.5t2.2,44.8q0,31.2-2.2,44.7t-11,19.6q-8.8,6.11-29.6,6.1T1330.86,1992.25Zm40.4-20.3q2.79-2.21,3.6-10.8t.8-33.2q0-24.6-.8-33.2t-3.6-10.8q-2.8-2.21-10.8-2.2t-10.8,2.2q-2.81,2.21-3.6,10.8t-.8,33.2q0,24.6.8,33.2t3.6,10.8q2.79,2.21,10.8,2.2t10.8-2.2Z"/><path class="cls-6" d="M1442.94,1996.75V1859.2h63.8v24.2h-36.2v35h31.8v24.2h-31.8v54.2Z"/><path class="cls-6" d="M1716.8,1997.35a87.09,87.09,0,0,1-12.7,1q-18.8,0-27.6-6.2t-11.7-20.6q-2.9-14.4-2.9-43.6,0-29,3-43.5t11.9-20.7q8.9-6.2,27.3-6.2a95.69,95.69,0,0,1,13.1.9,46.65,46.65,0,0,1,10.1,2.3v22.45a159.51,159.51,0,0,0-17.6-1.4q-10.2,0-14.1,2.7t-5,11.5q-1.1,8.8-1.1,32t1.1,32q1.1,8.8,5,11.5t14.1,2.7a114.15,114.15,0,0,0,18-1.4V1995A67.62,67.62,0,0,1,1716.8,1997.35Z"/><path class="cls-6" d="M1775.8,1992.25q-8.8-6.11-11-19.6t-2.2-44.7q0-31.4,2.2-44.8t11-19.5q8.81-6.11,29.6-6.1t29.6,6.1q8.8,6.11,11,19.5t2.2,44.8q0,31.2-2.2,44.7t-11,19.6q-8.8,6.11-29.6,6.1T1775.8,1992.25Zm40.4-20.3q2.8-2.21,3.6-10.8t.8-33.2q0-24.6-.8-33.2t-3.6-10.8q-2.81-2.21-10.8-2.2t-10.8,2.2q-2.8,2.21-3.6,10.8t-.8,33.2q0,24.6.8,33.2t3.6,10.8q2.81,2.21,10.8,2.2T1816.2,1972Z"/><path class="cls-6" d="M1981.08,1996.75v-101.4h-1.2l-19.8,101.4h-25.4l-19.4-101.4h-1.6v101.4h-25.8V1859.2h41.6l18,95.2h1.4l17.8-95.2h41v137.6Z"/><path class="cls-6" d="M2143.15,1996.75v-101.4H2142l-19.8,101.4H2096.8l-19.4-101.4h-1.6v101.4H2050V1859.2h41.6l18,95.2h1.4l17.8-95.2h41v137.6Z"/><path class="cls-6" d="M2212,1996.75V1859.2h66.77v24.2h-39.2v31.8h33.8v24.2h-33.8v33.2h39.2v24.2Z"/><path class="cls-6" d="M2373.51,1996.75l-13.4-48h-14.8v48h-27.6V1859.2h46.4q14.79,0,22.3,5a24.45,24.45,0,0,1,10.1,14.4q2.59,9.4,2.6,25.2,0,15-2.7,24.8a24.14,24.14,0,0,1-10.9,14.8l16.6,53.4Zm-6.6-73.3c1.86-1,3.1-2.87,3.7-5.6s.9-7.37.9-13.9-.3-10.93-.9-13.6-1.84-4.5-3.7-5.5-5-1.5-9.4-1.5h-12.2V1925h12.2q6.6,0,9.4-1.5Z"/><path class="cls-6" d="M2490.28,1997.35a87.09,87.09,0,0,1-12.7,1q-18.79,0-27.6-6.2t-11.7-20.6q-2.9-14.4-2.9-43.6,0-29,3-43.5t11.9-20.7q8.89-6.2,27.3-6.2a95.69,95.69,0,0,1,13.1.9,46.65,46.65,0,0,1,10.1,2.3v22.45a159.51,159.51,0,0,0-17.6-1.4q-10.2,0-14.1,2.7t-5,11.5q-1.1,8.8-1.1,32t1.1,32q1.1,8.8,5,11.5t14.1,2.7a114.15,114.15,0,0,0,18-1.4V1995A67.62,67.62,0,0,1,2490.28,1997.35Z"/><path class="cls-6" d="M2538.66,1996.75V1859.2h66.8v24.2h-39.2v31.8h33.8v24.2h-33.8v33.2h39.2v24.2Z"/></svg>