<?xml version="1.0" encoding="utf-8"?>
<!-- Generator: Adobe Illustrator 27.0.0, SVG Export Plug-In . SVG Version: 6.00 Build 0)  -->
<svg version="1.1" id="Layer_1" xmlns="http://www.w3.org/2000/svg" xmlns:xlink="http://www.w3.org/1999/xlink" x="0px" y="0px"
	 viewBox="0 0 800 800" style="enable-background:new 0 0 800 800;" xml:space="preserve">
<style type="text/css">
	.st0{fill-rule:evenodd;clip-rule:evenodd;fill:#FFFFFF;}
</style>
<g id="Page-1">
	<g id="Dribbble-Light-Preview" transform="translate(-300.000000, -7599.000000)">
		<g id="icons" transform="translate(56.000000, 160.000000)">
			<path id="whatsapp-_x5B__x23_128_x5D_" class="st0" d="M876.8,8003.8c-9.6,27.3-48,49.9-78.5,56.5c-20.9,4.4-48.2,8-140.1-30.1
				C555,7987.4,411.6,7835,411.6,7733.6c0-51.6,29.8-111.7,81.8-111.7c25,0,30.6,0.5,38.8,20.3c9.6,23.3,33.2,80.7,36,86.5
				c11.6,24.1-11.8,38.2-28.7,59.3c-5.4,6.3-11.5,13.2-4.7,24.9c6.8,11.5,30.3,49.9,64.9,80.6c44.6,39.8,80.8,52.5,93.8,57.9
				c9.6,4,21.2,3.1,28.2-4.5c8.9-9.6,20-25.6,31.3-41.4c8-11.3,18.1-12.7,28.7-8.7c7.2,2.5,98.2,44.7,102,51.5
				C886.5,7953.3,886.5,7976.6,876.8,8003.8 M644.1,7439h-0.2l0,0c-220.5,0-399.9,179.4-399.9,400c0,87.5,28.2,168.6,76.2,234.4
				l-49.8,148.6l153.7-49.1c63.2,41.9,138.7,66.1,220,66.1c220.5,0,399.9-179.4,399.9-400S864.6,7439,644.1,7439"/>
		</g>
	</g>
</g>
</svg>
