<?xml version="1.0" encoding="utf-8"?>
<!-- Generator: Adobe Illustrator 24.1.2, SVG Export Plug-In . SVG Version: 6.00 Build 0)  -->
<svg version="1.1" id="Layer_1" xmlns="http://www.w3.org/2000/svg" xmlns:xlink="http://www.w3.org/1999/xlink" x="0px" y="0px"
	 viewBox="0 0 2975.1 1998.3" style="enable-background:new 0 0 2975.1 1998.3;" xml:space="preserve">
<style type="text/css">
	.st0{fill:#FFFFFF;}
</style>
<path class="st0" d="M1767,305.2l-36.1-16.9l-229.4-106.9c-17.8-8.3-32.4-31.1-32.4-50.7l-0.3-107.1C1468.7,4,1482.5-4,1499.5,5.8
	l239.8,138.5c17,9.8,30.9,33.9,31,53.5l0.3,73.6C1770.7,291,1769,306.2,1767,305.2z"/>
<path class="st0" d="M1728.4,551.3l-224.5-76.2c-18.6-6.3-33.8-27.5-33.9-47.1l-0.7-203.5c-0.1-19.6,14.4-28.9,32.2-20.7l221,102.4
	c17.8,8.2,51.6,16.6,48.4,57.9l0.6,166.3C1769.6,561.3,1747,557.7,1728.4,551.3z"/>
<path class="st0" d="M1725.5,835.7l-219.1-36.3c-19.3-3.2-35.2-21.8-35.3-41.5l-0.8-237.2c-0.1-19.6,15.1-30.5,33.7-24.3l218.1,73.4
	c18.6,6.3,52,18.8,49.8,52.3l0.7,185.7C1771.1,842.5,1744.8,839,1725.5,835.7z"/>
<path class="st0" d="M1541,1048.3c-52.6-1-69-18-69-37.6l-0.5-160.8c-0.1-19.6,15.7-33.1,35.1-29.9l215.8,35.2
	c19.4,3.1,53.4,5.6,50.7,43.8l0.5,120.4c0.2,18.9-15,34.4-33.9,34.6h-1.6L1541,1048.3z"/>
<path class="st0" d="M1428.7,5.4c16.1-11.2,29.3-4.3,29.3,15.3v104.8c1.3,32.3-18.9,45-36.4,53.9l-143.2,72.5
	c-17.5,8.9-31.9,0.1-31.9-19.5l-0.2-64.5c-0.1-19.6,13-44.8,29.2-56L1428.7,5.4z"/>
<path class="st0" d="M1424.5,493.4c18.5-6.7,33.5,3.8,33.5,23.4v239c-0.2,30.1-17.6,38.8-36.9,42.3l-137.4,24.8
	c-19.3,3.5-35.2-9.7-35.2-29.3l-0.7-200c-0.1-19.6,14.9-41.1,33.4-47.8L1424.5,493.4z"/>
<path class="st0" d="M1422.9,818.3c19.3-3.4,35.1,9.8,35.1,29.4V1011c0,19.6-15.5,36.4-61.3,37.5h-1l-71.3,2.2l-39.3,1.3
	c-19,0.7-35-14.1-35.7-33.1l0,0v-1.4l-0.5-132.8c-0.1-19.6,15.7-38.4,35-41.8L1422.9,818.3z"/>
<path class="st0" d="M1397.3,1068.7c48.2-3,60.7,14.3,60.7,34v88.2c0,19.6-9.2,34.9-20.4,33.9l-55.9-4.8l-55.4-4.7l-55.9-4.8
	c-11.2-0.9-20.4-17.8-20.5-37.4l-0.2-64.8c0.1-19.7,15.8-35.9,35.5-36.6l39.8-1.1c19.6-0.5,51.7-1.4,71.3-1.9L1397.3,1068.7z"/>
<path class="st0" d="M1206.4,456.8c17.9-8,32.6,1.5,32.6,21.1v26.6c0,19.6-9.3,39.1-20.6,43.3l-146.3,54.4
	c-30,12.5-42.9,16.4-45.1-11.6l-1-29c0-11.5,3.2-21.6,25.1-34.3C1064.7,519.5,1206.4,456.8,1206.4,456.8z"/>
<path class="st0" d="M1209.6,855.8c17.5-3.1,29.4,10.9,29.4,30.5v131.5c0,9.2-6.3,25.4-17.6,32.1c-12.7,7.6-31.1,5.1-41.5,5.4
	l-73.3,2.5c-19.6,0.7-45.3,1.6-57.1,2s-21.5-15.3-21.6-34.9l-0.4-102c0-14.7-1.8-28.1,18.4-37.2c6.7-3,21.7-5.2,32.2-7.2
	c19.1-3.3,50.3-8.7,69.5-12C1166.5,863.4,1199.2,857.7,1209.6,855.8z"/>
<path class="st0" d="M1180.4,1074.4c51.2,0.4,58.6,14.5,58.6,34.2v63.6c0,19.6-6.9,35.1-15.3,34.4l-50.8-4.3l-78.4-6.6l-50.8-4.3
	c-8.4-0.7-15.3-17.3-15.4-37l-0.2-40.5c-0.1-19.6,9.6-35.9,21.6-36.2l57.3-1.4L1180.4,1074.4z"/>
<path class="st0" d="M2058.8,908.8l49,7.7c11.1,1.7,20.1,12.3,20,23.5l-0.5,106.6c0,10.8-8.7,19.7-19.6,19.7h0h-0.9l-23-0.8
	c-52.6-1.9-137.4-4.7-137.4-4.7c-11.3-0.5-20.3-9.8-20.4-21.1V908.2c0-11.2,9-18.9,20.1-17.2
	C1946.2,891.1,2014.5,901.9,2058.8,908.8z"/>
<path class="st0" d="M2109.6,698.8c10.6,3.5,19.3,15.5,19.3,26.8l-0.8,158.2c-0.1,11.2-9.1,18.8-20.2,16.9c0,0-24.3-4.2-46.4-8
	c-45.2-7.8-115.3-19.7-115.3-19.7c-11-1.9-20.1-12.6-20.1-23.8V658.5c0-11.2,8.7-17.5,19.3-14l17.3,5.7l38.7,12.8l36.7,12.2
	l38.7,12.8L2109.6,698.8z"/>
<path class="st0" d="M713,749.8c10.6-3.8,19.2,2.4,19.2,13.6v141.2c0,11.2-9,22.1-20,24.2l-52.7,10c-11,2.1-20-5.3-20.1-16.6
	l-0.2-125.9c0-11.2,8.6-23.4,19.2-27.2L713,749.8z"/>
<path class="st0" d="M712.1,940.7c11-1.8,20.1,5.8,20.1,17v93.8c-0.2,11.3-9.1,20.6-20.4,21.2l-51.6,2.1
	c-10.7,0.5-19.8-7.8-20.4-18.5v-1.1l-0.2-82.3c0-11.2,9-21.9,20-23.7L712.1,940.7z"/>
<path class="st0" d="M640,1106.2c0-11.3,9-20.5,20.3-20.7l51.6-0.9c11-0.2,20.1,8.6,20.4,19.6v40.3c0,11.2-2.3,20.2-5.1,19.9
	l-25.4-2.1l-31.2-2.7l-25.4-2.1c-2.8-0.2-5.1-9.6-5.1-20.8L640,1106.2z"/>
<path class="st0" d="M612.4,957.2c11.1-1.8,20.1,5.9,20.1,17.1v81.4c-0.2,11.4-9.1,20.7-20.4,21.3l-39,1.7
	c-10.7,0.5-19.8-7.8-20.4-18.5v-1l-0.3-71.7c0-11.2,9-21.8,20-23.7L612.4,957.2z"/>
<path class="st0" d="M552.9,1107.5c0-11.3,9-20.5,20.3-20.7l39-0.6c11-0.2,20.2,8.5,20.4,19.6l0,0v30.1c0,11.2-1.8,20.2-4.1,20
	l-24.4-2.1l-22.5-1.9l-24.4-2.1c-2.2-0.2-4.1-9.5-4.1-20.7L552.9,1107.5z"/>
<path class="st0" d="M2371.8,974.3c11.1,1.8,20.1,12.3,20,23.6l-0.4,58.9c-0.1,11.2-5.6,20.2-12.2,19.9l-6-0.2
	c-39.1-1.6-97-3.8-97-3.8c-11.3-0.6-20.2-9.9-20.4-21.2v-75c0-11.2,9.1-19,20.1-17.2L2371.8,974.3z"/>
<path class="st0" d="M998.1,247.8c9.5-5.9,17.3-1.6,17.3,9.6v107.9c0,11.2-8.2,24.5-18.1,29.7l-10.7,5.5
	c-10,5.1-26.3,13.5-36.3,18.6l-25.6,13.1c-10,5.1-18.2,0.1-18.2-11.1l-0.1-96.1c0-11.2,7.8-25.2,17.3-31.1L998.1,247.8z"/>
<path class="st0" d="M997.2,414.2c10-5,18.3,0.1,18.3,11.3V603c0,11.2-8.6,23.6-19.1,27.5l-7.9,2.9l-38.2,14.3l-24.3,9.1
	c-10.5,3.9-19.1-2-19.1-13.2l-0.2-164.1c0-11.2,8.2-24.5,18.2-29.4l32.9-16.3c10-5,26.5-13.1,36.5-18.1L997.2,414.2z"/>
<path class="st0" d="M996.3,648.7c10.5-3.8,19.2,2.3,19.2,13.5v189.4c0,11.2-9,22.1-20,24.1l-4.5,0.8l-40.1,7.4l-23.5,4.4
	c-11,2-20-5.4-20.1-16.7l-0.2-170.5c0-11.2,8.6-23.5,19.2-27.3l29.8-10.7l38.3-13.8L996.3,648.7z"/>
<path class="st0" d="M995.4,892.9c11-1.9,20.1,5.7,20.1,16.9v131c0,11.2-5.5,21.8-37.3,21.7l-31.6,1.2l-26.6,1
	c-3.4,0.1-12.5-8.7-12.5-19.9l-0.2-116.4c0-11.2,9-21.9,20.1-23.8l26.3-4.5c11-1.9,29.1-5,40.2-6.9L995.4,892.9z"/>
<path class="st0" d="M2139.6,1102.9c0-11,9-20,20-20h0.4l62.1,1.1c11.3,0.2,20.3,9.4,20.3,20.7v37.2c0.2,20.9-8.9,22.4-35.6,23.4
	l-31.6,2.7c-5,0.4-18.2,2.5-25,0.1c-8.6-3-10.6-11.2-10.6-17.4L2139.6,1102.9L2139.6,1102.9z"/>
<path class="st0" d="M2139.6,729c0-11.2,8.7-17.5,19.4-14l64.6,21.2c10.6,3.5,19.4,15.5,19.3,26.7l-0.2,140.8
	c0,11.2-9.1,18.8-20.1,16.9l-62.9-11c-11-1.9-20.1-12.7-20.1-23.9V729z"/>
<path class="st0" d="M2139.6,517.8c0-11.2,8.3-16.6,18.6-11.9l66.5,30.2c10.2,4.6,18.5,17.6,18.5,28.8l-0.2,143.5
	c0,11.2-8.7,17.4-19.3,13.7l-64.9-22.6c-10.6-3.7-19.2-15.9-19.2-27.1L2139.6,517.8z"/>
<path class="st0" d="M2156.7,276.9c-9.4-6.1-17-2-17,9.2v174.4c0,11.2,8.3,24.3,18.4,29.1l66.8,31.8c10.1,4.8,18.4-0.4,18.4-11.6
	l0.2-155.6c0-11.2-7.6-25.4-17-31.5L2156.7,276.9z"/>
<path class="st0" d="M1791.1,1095.4c-0.1-10.9,8.7-19.8,19.7-19.9c0,0,0,0,0,0h0.6l77.4,1.8c11.2,0.4,20.2,9.5,20.3,20.8l-0.1,72.1
	c0,11.2-6.9,21-15.3,21.7l-35.6,3l-16.3,1.4l-35.6,3c-8.4,0.7-15.3-7.9-15.3-19.1v-84.8H1791.1z"/>
<path class="st0" d="M1888,881.8c11.1,1.8,21.4,12.6,21.4,23.8l-0.2,133.5c0.1,10.8-8.6,19.6-19.5,19.7h-0.9l-77.4-2.5
	c-11.3-0.5-20.3-9.7-20.4-21V886.7c0-11.2,9.1-18.9,20.1-17.2L1888,881.8z"/>
<path class="st0" d="M1887.3,625.2c10.6,3.5,22.4,16.6,22.4,27.8l-0.2,193.3c0,11.2-9.1,18.9-20.1,17l-78.2-13.2
	c-11.1-1.9-20.1-12.6-20.1-23.8V613.5c0-11.2,8.7-17.5,19.3-13.9L1887.3,625.2z"/>
<path class="st0" d="M1887.2,382c10.2,4.6,22.7,19.6,22.7,30.9l-0.2,180.1c0,11.2-8.7,17.4-19.3,13.8l-80.1-27.4
	c-10.6-3.6-19.3-15.8-19.3-27V358.2c0-11.2,8.3-16.5,18.5-11.9L1887.2,382z"/>
<path class="st0" d="M875.9,691.8c10.5-3.8,19.2,2.3,19.2,13.5v168.5c0,11.2-9,22.1-20,24.1l-113.5,21.4c-11,2.1-20-5.4-20.1-16.6
	l-0.3-142.5c0-11.2,8.6-23.4,19.2-27.2L875.9,691.8z"/>
<path class="st0" d="M741.9,1104.4c0.1-11.2,9.1-20.4,20.3-20.7l112.5-2.2c11-0.2,20.1,8.5,20.4,19.5v57.4c0,11.2-3.4,20.1-7.6,19.7
	l-28-2.4l-81.9-7l-28-2.4c-4.2-0.4-7.7-9.8-7.7-21V1104.4z"/>
<path class="st0" d="M326.2,1780.1v-354.9H322l-69.3,354.9h-88.9l-67.9-354.9h-5.6v354.9H0v-481.6h145.6l63,333.2h4.9l62.3-333.2
	h143.5v481.6H326.2z"/>
<path class="st0" d="M579.3,1764.3c-20.5-14.2-33.4-37.1-38.5-68.6c-5.1-31.5-7.7-83.7-7.7-156.4c0-73.3,2.6-125.5,7.7-156.8
	c5.1-31.3,18-54,38.5-68.3c20.5-14.2,55.1-21.3,103.6-21.3s83.1,7.1,103.6,21.3c20.5,14.2,33.4,37,38.5,68.3s7.7,83.5,7.7,156.8
	c0,72.8-2.6,125-7.7,156.4c-5.1,31.5-18,54.4-38.5,68.6c-20.5,14.2-55.1,21.4-103.6,21.3C634.4,1785.7,599.9,1778.5,579.3,1764.3z
	 M720.7,1693.3c6.5-5.1,10.7-17.7,12.6-37.8c1.9-20.1,2.8-58.8,2.8-116.2c0-57.4-0.9-96.1-2.8-116.2s-6.1-32.7-12.6-37.8
	c-6.5-5.1-19.1-7.7-37.8-7.7c-18.7,0-31.3,2.6-37.8,7.7c-6.5,5.1-10.7,17.7-12.6,37.8s-2.8,58.8-2.8,116.2
	c0,57.4,0.9,96.1,2.8,116.2s6.1,32.7,12.6,37.8c6.5,5.1,19.1,7.7,37.8,7.7C701.6,1701,714.2,1698.4,720.7,1693.3L720.7,1693.3z"/>
<path class="st0" d="M1153,1780.1l-112-263.9h-2.8v263.9h-91.7v-481.6h93.1l104.3,243.6h3.5v-243.6h92.4v481.6H1153z"/>
<path class="st0" d="M1424.3,1780.1V1386h-91v-87.5h278.6v87.5h-91v394.1L1424.3,1780.1z"/>
<path class="st0" d="M1705.4,1780.1v-481.6h233.8v84.7h-137.2v111.3h118.3v84.7h-118.3v116.2h137.2v84.7L1705.4,1780.1z"/>
<path class="st0" d="M2245.6,1780.1l-46.9-168h-51.8v168h-96.6v-481.6h162.4c34.5,0,60.6,5.8,78.1,17.5s29.3,28.5,35.4,50.4
	c6.1,21.9,9.1,51.3,9.1,88.2c0,35-3.2,63.9-9.4,86.8c-6.3,22.9-19,40.1-38.1,51.8l58.1,186.9L2245.6,1780.1z M2222.5,1523.5
	c6.5-3.5,10.8-10,12.9-19.6c2.1-9.6,3.2-25.8,3.1-48.7c0-22.4-1.1-38.3-3.1-47.6c-2.1-9.3-6.4-15.8-12.9-19.3
	c-6.5-3.5-17.5-5.3-32.9-5.3h-42.7v145.6h42.7C2205,1528.8,2215.9,1527,2222.5,1523.5z"/>
<path class="st0" d="M2446.9,1780.1v-481.6h95.9v481.6H2446.9z M2449,1255.1v-3.5l37.1-98.7h89.6v3.5l-55.3,98.7H2449z"/>
<path class="st0" d="M2877.1,1780.1l-18.9-98.7h-107.8l-18.9,98.7h-95.9l99.4-481.6h140.7l99.4,481.6H2877.1z M2806.4,1389.5h-4.2
	l-37.8,208.6h79.1L2806.4,1389.5z"/>
<path class="st0" d="M396.1,1997.3c-4.2,0.6-8.4,1-12.7,1c-12.5,0-21.7-2.1-27.6-6.2c-5.9-4.1-9.8-11-11.7-20.6
	c-1.9-9.6-2.9-24.1-2.9-43.6c0-19.3,1-33.8,3-43.5c2-9.7,6-16.6,11.9-20.7c5.9-4.1,15-6.2,27.3-6.2c4.4,0,8.8,0.3,13.1,0.9
	c3.4,0.4,6.8,1.2,10.1,2.3v22.4c-5.8-0.8-11.7-1.3-17.6-1.4c-6.8,0-11.5,0.9-14.1,2.7c-2.6,1.8-4.3,5.6-5,11.5s-1.1,16.5-1.1,32
	c0,15.5,0.4,26.1,1.1,32c0.7,5.9,2.4,9.7,5,11.5c2.6,1.8,7.3,2.7,14.1,2.7c6,0,12-0.5,18-1.4v22.2
	C403.4,1996.1,399.8,1996.9,396.1,1997.3z"/>
<path class="st0" d="M500.1,1996.8v-56.6h-28.2v56.6h-27.4v-137.6h27.4v55.6h28.2v-55.6h27.4v137.6L500.1,1996.8z"/>
<path class="st0" d="M630,1996.8l-5.4-28.2h-30.8l-5.4,28.2H561l28.4-137.6h40.2l28.4,137.6H630z M609.8,1885.2h-1.2l-10.8,59.6
	h22.6L609.8,1885.2z"/>
<path class="st0" d="M784.6,1996.8v-101.4h-1.2l-19.8,101.4h-25.4l-19.4-101.4h-1.6v101.4h-25.8v-137.6H733l18,95.2h1.4l17.8-95.2
	h41v137.6L784.6,1996.8z"/>
<path class="st0" d="M853.5,1859.2h47.2c10.8,0,18.9,2.9,24.3,8.6c5.4,5.7,8.1,14.4,8.1,26c0,9.7-1.5,17.2-4.4,22.3
	c-2.9,5.1-7.5,8.5-13.8,10.1v0.8c6.9,1.7,11.9,5.1,14.9,10s4.5,12.6,4.5,23c0,12.1-2.6,21.3-7.8,27.5s-13.8,9.3-25.8,9.3h-47.2
	V1859.2z M901.2,1914.2c1.9-0.9,3.3-2.6,3.8-4.6c0.9-3.3,1.2-6.8,1.1-10.2c0-4.8-0.3-8.3-1-10.5c-0.5-1.9-1.8-3.6-3.6-4.4
	c-1.7-0.7-4.5-1.1-8.2-1.1h-12.6v32h12.6C896,1915.5,898.7,1915.1,901.2,1914.2L901.2,1914.2z M902.1,1971.4
	c1.8-0.9,3.1-2.6,3.6-4.6c0.7-2.3,1-5.9,1-10.8c0.1-3.7-0.2-7.3-1-10.9c-0.4-2.1-1.8-3.8-3.7-4.7c-2.6-0.9-5.3-1.3-8.1-1.2h-13.2
	v33.4h13.2C897.7,1972.6,900.4,1972.2,902.1,1971.4L902.1,1971.4z"/>
<path class="st0" d="M972.6,1996.8v-137.6h66.8v24.2h-39.2v31.8h33.8v24.2h-33.8v33.2h39.2v24.2L972.6,1996.8z"/>
<path class="st0" d="M1134.1,1996.8l-13.4-48h-14.8v48h-27.6v-137.6h46.4c9.9,0,17.3,1.7,22.3,5c5,3.4,8.6,8.5,10.1,14.4
	c1.7,6.3,2.6,14.7,2.6,25.2c0,10-0.9,18.3-2.7,24.8c-1.5,6.2-5.5,11.5-10.9,14.8l16.6,53.4L1134.1,1996.8z M1127.5,1923.4
	c1.9-1,3.1-2.9,3.7-5.6c0.6-2.7,0.9-7.4,0.9-13.9c0-6.4-0.3-10.9-0.9-13.6c-0.6-2.7-1.8-4.5-3.7-5.5c-1.9-1-5-1.5-9.4-1.5h-12.2
	v41.7h12.2C1122.5,1925,1125.6,1924.5,1127.5,1923.4z"/>
<path class="st0" d="M1330.9,1992.3c-5.9-4.1-9.5-10.6-11-19.6c-1.5-9-2.2-23.9-2.2-44.7c0-20.9,0.7-35.9,2.2-44.8
	c1.5-8.9,5.1-15.4,11-19.5c5.9-4.1,15.7-6.1,29.6-6.1c13.9,0,23.7,2,29.6,6.1c5.9,4.1,9.5,10.6,11,19.5c1.5,8.9,2.2,23.9,2.2,44.8
	c0,20.8-0.7,35.7-2.2,44.7c-1.5,9-5.1,15.5-11,19.6c-5.9,4.1-15.7,6.1-29.6,6.1C1346.6,1998.3,1336.7,1996.3,1330.9,1992.3z
	 M1371.3,1971.9c1.9-1.5,3.1-5.1,3.6-10.8c0.5-5.7,0.8-16.8,0.8-33.2c0-16.4-0.3-27.5-0.8-33.2c-0.5-5.7-1.7-9.3-3.6-10.8
	c-1.9-1.5-5.5-2.2-10.8-2.2s-8.9,0.7-10.8,2.2c-1.9,1.5-3.1,5.1-3.6,10.8s-0.8,16.8-0.8,33.2c0,16.4,0.3,27.5,0.8,33.2
	c0.5,5.7,1.7,9.3,3.6,10.8c1.9,1.5,5.5,2.2,10.8,2.2S1369.4,1973.4,1371.3,1971.9z"/>
<path class="st0" d="M1442.9,1996.8v-137.6h63.8v24.2h-36.2v35h31.8v24.2h-31.8v54.2L1442.9,1996.8z"/>
<path class="st0" d="M1716.8,1997.3c-4.2,0.6-8.4,1-12.7,1c-12.5,0-21.7-2.1-27.6-6.2c-5.9-4.1-9.8-11-11.7-20.6s-2.9-24.1-2.9-43.6
	c0-19.3,1-33.8,3-43.5c2-9.7,6-16.6,11.9-20.7s15-6.2,27.3-6.2c4.4,0,8.8,0.3,13.1,0.9c3.4,0.4,6.8,1.2,10.1,2.3v22.4
	c-5.8-0.8-11.7-1.3-17.6-1.4c-6.8,0-11.5,0.9-14.1,2.7c-2.6,1.8-4.3,5.6-5,11.5c-0.7,5.9-1.1,16.5-1.1,32c0,15.5,0.4,26.1,1.1,32
	c0.7,5.9,2.4,9.7,5,11.5c2.6,1.8,7.3,2.7,14.1,2.7c6,0,12-0.5,18-1.4v22.2C1724.1,1996.1,1720.5,1996.9,1716.8,1997.3z"/>
<path class="st0" d="M1775.8,1992.3c-5.9-4.1-9.5-10.6-11-19.6c-1.5-9-2.2-23.9-2.2-44.7c0-20.9,0.7-35.9,2.2-44.8
	c1.5-8.9,5.1-15.4,11-19.5c5.9-4.1,15.7-6.1,29.6-6.1c13.9,0,23.7,2,29.6,6.1c5.9,4.1,9.5,10.6,11,19.5c1.5,8.9,2.2,23.9,2.2,44.8
	c0,20.8-0.7,35.7-2.2,44.7s-5.1,15.5-11,19.6c-5.9,4.1-15.7,6.1-29.6,6.1C1791.5,1998.3,1781.7,1996.3,1775.8,1992.3z
	 M1816.2,1971.9c1.9-1.5,3.1-5.1,3.6-10.8s0.8-16.8,0.8-33.2c0-16.4-0.3-27.5-0.8-33.2c-0.5-5.7-1.7-9.3-3.6-10.8
	c-1.9-1.5-5.5-2.2-10.8-2.2s-8.9,0.7-10.8,2.2c-1.9,1.5-3.1,5.1-3.6,10.8s-0.8,16.8-0.8,33.2c0,16.4,0.3,27.5,0.8,33.2
	s1.7,9.3,3.6,10.8c1.9,1.5,5.5,2.2,10.8,2.2S1814.3,1973.4,1816.2,1971.9L1816.2,1971.9z"/>
<path class="st0" d="M1981.1,1996.8v-101.4h-1.2l-19.8,101.4h-25.4l-19.4-101.4h-1.6v101.4h-25.8v-137.6h41.6l18,95.2h1.4l17.8-95.2
	h41v137.6L1981.1,1996.8z"/>
<path class="st0" d="M2143.1,1996.8v-101.4h-1.1l-19.8,101.4h-25.4l-19.4-101.4h-1.6v101.4H2050v-137.6h41.6l18,95.2h1.4l17.8-95.2
	h41v137.6L2143.1,1996.8z"/>
<path class="st0" d="M2212,1996.8v-137.6h66.8v24.2h-39.2v31.8h33.8v24.2h-33.8v33.2h39.2v24.2L2212,1996.8z"/>
<path class="st0" d="M2373.5,1996.8l-13.4-48h-14.8v48h-27.6v-137.6h46.4c9.9,0,17.3,1.7,22.3,5c5,3.4,8.6,8.5,10.1,14.4
	c1.7,6.3,2.6,14.7,2.6,25.2c0,10-0.9,18.3-2.7,24.8c-1.5,6.2-5.5,11.5-10.9,14.8l16.6,53.4L2373.5,1996.8z M2366.9,1923.4
	c1.9-1,3.1-2.9,3.7-5.6s0.9-7.4,0.9-13.9s-0.3-10.9-0.9-13.6s-1.8-4.5-3.7-5.5s-5-1.5-9.4-1.5h-12.2v41.7h12.2
	C2361.9,1925,2365,1924.5,2366.9,1923.4L2366.9,1923.4z"/>
<path class="st0" d="M2490.3,1997.3c-4.2,0.6-8.4,1-12.7,1c-12.5,0-21.7-2.1-27.6-6.2s-9.8-11-11.7-20.6c-1.9-9.6-2.9-24.1-2.9-43.6
	c0-19.3,1-33.8,3-43.5c2-9.7,6-16.6,11.9-20.7c5.9-4.1,15-6.2,27.3-6.2c4.4,0,8.8,0.3,13.1,0.9c3.4,0.4,6.8,1.2,10.1,2.3v22.4
	c-5.8-0.8-11.7-1.3-17.6-1.4c-6.8,0-11.5,0.9-14.1,2.7c-2.6,1.8-4.3,5.6-5,11.5c-0.7,5.9-1.1,16.5-1.1,32c0,15.5,0.4,26.1,1.1,32
	s2.4,9.7,5,11.5c2.6,1.8,7.3,2.7,14.1,2.7c6,0,12-0.5,18-1.4v22.2C2497.6,1996.1,2494,1996.9,2490.3,1997.3z"/>
<path class="st0" d="M2538.7,1996.8v-137.6h66.8v24.2h-39.2v31.8h33.8v24.2h-33.8v33.2h39.2v24.2L2538.7,1996.8z"/>
</svg>
