<?xml version="1.0" encoding="utf-8"?>
<!-- Generator: Adobe Illustrator 24.1.2, SVG Export Plug-In . SVG Version: 6.00 Build 0)  -->
<svg version="1.1" id="Layer_1" xmlns="http://www.w3.org/2000/svg" xmlns:xlink="http://www.w3.org/1999/xlink" x="0px" y="0px"
	 viewBox="0 0 1839.4 1224.8" style="enable-background:new 0 0 1839.4 1224.8;" xml:space="preserve">
<style type="text/css">
	.st0{fill:#FFFFFF;}
</style>
<path class="st0" d="M1214.6,305.2l-36.1-16.9L949.1,181.4c-17.8-8.3-32.4-31.1-32.4-50.7l-0.3-107.1C916.3,4,930.1-4,947.1,5.8
	l239.8,138.5c17,9.8,30.9,33.9,31,53.5l0.3,73.6C1218.3,291,1216.6,306.2,1214.6,305.2z"/>
<path class="st0" d="M1176,551.3l-224.5-76.2c-18.6-6.3-33.8-27.5-33.9-47.1l-0.7-203.5c-0.1-19.6,14.4-28.9,32.2-20.7l221,102.4
	c17.8,8.2,51.6,16.6,48.4,57.9l0.6,166.3C1217.2,561.3,1194.6,557.7,1176,551.3z"/>
<path class="st0" d="M1173.1,835.7L954,799.4c-19.3-3.2-35.2-21.8-35.3-41.5l-0.8-237.2c-0.1-19.6,15.1-30.5,33.7-24.3l218.1,73.4
	c18.6,6.3,52,18.8,49.8,52.3l0.7,185.7C1218.7,842.5,1192.4,839,1173.1,835.7z"/>
<path class="st0" d="M988.6,1048.3c-52.6-1-69-18-69-37.6l-0.5-160.8c-0.1-19.6,15.7-33.1,35.1-29.9l215.8,35.2
	c19.4,3.1,53.4,5.6,50.7,43.8l0.5,120.4c0.2,18.9-15,34.4-33.9,34.6h-1.6L988.6,1048.3z"/>
<path class="st0" d="M876.3,5.4c16.1-11.2,29.3-4.3,29.3,15.3v104.8c1.3,32.3-18.9,45-36.4,53.9L726,251.9
	c-17.5,8.9-31.9,0.1-31.9-19.5l-0.2-64.5c-0.1-19.6,13-44.8,29.2-56L876.3,5.4z"/>
<path class="st0" d="M872.1,493.4c18.5-6.7,33.5,3.8,33.5,23.4v239c-0.2,30.1-17.6,38.8-36.9,42.3l-137.4,24.8
	c-19.3,3.5-35.2-9.7-35.2-29.3l-0.7-200c-0.1-19.6,14.9-41.1,33.4-47.8L872.1,493.4z"/>
<path class="st0" d="M870.5,818.3c19.3-3.4,35.1,9.8,35.1,29.4V1011c0,19.6-15.5,36.4-61.3,37.5h-1l-71.3,2.2l-39.3,1.3
	c-19,0.7-35-14.1-35.7-33.1l0,0v-1.4l-0.5-132.8c-0.1-19.6,15.7-38.4,35-41.8L870.5,818.3z"/>
<path class="st0" d="M844.9,1068.7c48.2-3,60.7,14.3,60.7,34v88.2c0,19.6-9.2,34.9-20.4,33.9l-55.9-4.8l-55.4-4.7l-55.9-4.8
	c-11.2-0.9-20.4-17.8-20.5-37.4l-0.2-64.8c0.1-19.7,15.8-35.9,35.5-36.6l39.8-1.1c19.6-0.5,51.7-1.4,71.3-1.9L844.9,1068.7z"/>
<path class="st0" d="M654,456.8c17.9-8,32.6,1.5,32.6,21.1v26.6c0,19.6-9.3,39.1-20.6,43.3l-146.3,54.4
	c-30,12.5-42.9,16.4-45.1-11.6l-1-29c0-11.5,3.2-21.6,25.1-34.3C512.3,519.5,654,456.8,654,456.8z"/>
<path class="st0" d="M657.2,855.8c17.5-3.1,29.4,10.9,29.4,30.5v131.5c0,9.2-6.3,25.4-17.6,32.1c-12.7,7.6-31.1,5.1-41.5,5.4
	l-73.3,2.5c-19.6,0.7-45.3,1.6-57.1,2s-21.5-15.3-21.6-34.9l-0.4-102c0-14.7-1.8-28.1,18.4-37.2c6.7-3,21.7-5.2,32.2-7.2
	c19.1-3.3,50.3-8.7,69.5-12C614.1,863.4,646.8,857.7,657.2,855.8z"/>
<path class="st0" d="M628,1074.4c51.2,0.4,58.6,14.5,58.6,34.2v63.6c0,19.6-6.9,35.1-15.3,34.4l-50.8-4.3l-78.4-6.6l-50.8-4.3
	c-8.4-0.7-15.3-17.3-15.4-37l-0.2-40.5c-0.1-19.6,9.6-35.9,21.6-36.2l57.3-1.4L628,1074.4z"/>
<path class="st0" d="M1506.4,908.8l49,7.7c11.1,1.7,20.1,12.3,20,23.5l-0.5,106.6c0,10.8-8.7,19.7-19.6,19.7l0,0h-0.9l-23-0.8
	c-52.6-1.9-137.4-4.7-137.4-4.7c-11.3-0.5-20.3-9.8-20.4-21.1V908.2c0-11.2,9-18.9,20.1-17.2
	C1393.8,891.1,1462.1,901.9,1506.4,908.8z"/>
<path class="st0" d="M1557.2,698.8c10.6,3.5,19.3,15.5,19.3,26.8l-0.8,158.2c-0.1,11.2-9.1,18.8-20.2,16.9c0,0-24.3-4.2-46.4-8
	c-45.2-7.8-115.3-19.7-115.3-19.7c-11-1.9-20.1-12.6-20.1-23.8V658.5c0-11.2,8.7-17.5,19.3-14l17.3,5.7L1449,663l36.7,12.2
	l38.7,12.8L1557.2,698.8z"/>
<path class="st0" d="M160.6,749.8c10.6-3.8,19.2,2.4,19.2,13.6v141.2c0,11.2-9,22.1-20,24.2l-52.7,10c-11,2.1-20-5.3-20.1-16.6
	l-0.2-125.9c0-11.2,8.6-23.4,19.2-27.2L160.6,749.8z"/>
<path class="st0" d="M159.7,940.7c11-1.8,20.1,5.8,20.1,17v93.8c-0.2,11.3-9.1,20.6-20.4,21.2l-51.6,2.1
	c-10.7,0.5-19.8-7.8-20.4-18.5v-1.1l-0.2-82.3c0-11.2,9-21.9,20-23.7L159.7,940.7z"/>
<path class="st0" d="M87.6,1106.2c0-11.3,9-20.5,20.3-20.7l51.6-0.9c11-0.2,20.1,8.6,20.4,19.6v40.3c0,11.2-2.3,20.2-5.1,19.9
	l-25.4-2.1l-31.2-2.7l-25.4-2.1c-2.8-0.2-5.1-9.6-5.1-20.8L87.6,1106.2z"/>
<path class="st0" d="M60,957.2c11.1-1.8,20.1,5.9,20.1,17.1v81.4c-0.2,11.4-9.1,20.7-20.4,21.3l-39,1.7
	c-10.7,0.5-19.8-7.8-20.4-18.5v-1L0,987.5c0-11.2,9-21.8,20-23.7L60,957.2z"/>
<path class="st0" d="M0.5,1107.5c0-11.3,9-20.5,20.3-20.7l39-0.6c11-0.2,20.2,8.5,20.4,19.6l0,0v30.1c0,11.2-1.8,20.2-4.1,20
	l-24.4-2.1l-22.5-1.9l-24.4-2.1c-2.2-0.2-4.1-9.5-4.1-20.7L0.5,1107.5z"/>
<path class="st0" d="M1819.4,974.3c11.1,1.8,20.1,12.3,20,23.6l-0.4,58.9c-0.1,11.2-5.6,20.2-12.2,19.9l-6-0.2
	c-39.1-1.6-97-3.8-97-3.8c-11.3-0.6-20.2-9.9-20.4-21.2v-75c0-11.2,9.1-19,20.1-17.2L1819.4,974.3z"/>
<path class="st0" d="M445.7,247.8c9.5-5.9,17.3-1.6,17.3,9.6v107.9c0,11.2-8.2,24.5-18.1,29.7l-10.7,5.5
	c-10,5.1-26.3,13.5-36.3,18.6l-25.6,13.1c-10,5.1-18.2,0.1-18.2-11.1L354,325c0-11.2,7.8-25.2,17.3-31.1L445.7,247.8z"/>
<path class="st0" d="M444.8,414.2c10-5,18.3,0.1,18.3,11.3V603c0,11.2-8.6,23.6-19.1,27.5l-7.9,2.9l-38.2,14.3l-24.3,9.1
	c-10.5,3.9-19.1-2-19.1-13.2l-0.2-164.1c0-11.2,8.2-24.5,18.2-29.4l32.9-16.3c10-5,26.5-13.1,36.5-18.1L444.8,414.2z"/>
<path class="st0" d="M443.9,648.7c10.5-3.8,19.2,2.3,19.2,13.5v189.4c0,11.2-9,22.1-20,24.1l-4.5,0.8l-40.1,7.4l-23.5,4.4
	c-11,2-20-5.4-20.1-16.7l-0.2-170.5c0-11.2,8.6-23.5,19.2-27.3l29.8-10.7l38.3-13.8L443.9,648.7z"/>
<path class="st0" d="M443,892.9c11-1.9,20.1,5.7,20.1,16.9v131c0,11.2-5.5,21.8-37.3,21.7l-31.6,1.2l-26.6,1
	c-3.4,0.1-12.5-8.7-12.5-19.9l-0.2-116.4c0-11.2,9-21.9,20.1-23.8l26.3-4.5c11-1.9,29.1-5,40.2-6.9L443,892.9z"/>
<path class="st0" d="M1587.2,1102.9c0-11,9-20,20-20h0.4l62.1,1.1c11.3,0.2,20.3,9.4,20.3,20.7v37.2c0.2,20.9-8.9,22.4-35.6,23.4
	l-31.6,2.7c-5,0.4-18.2,2.5-25,0.1c-8.6-3-10.6-11.2-10.6-17.4L1587.2,1102.9L1587.2,1102.9z"/>
<path class="st0" d="M1587.2,729c0-11.2,8.7-17.5,19.4-14l64.6,21.2c10.6,3.5,19.4,15.5,19.3,26.7l-0.2,140.8
	c0,11.2-9.1,18.8-20.1,16.9l-62.9-11c-11-1.9-20.1-12.7-20.1-23.9V729z"/>
<path class="st0" d="M1587.2,517.8c0-11.2,8.3-16.6,18.6-11.9l66.5,30.2c10.2,4.6,18.5,17.6,18.5,28.8l-0.2,143.5
	c0,11.2-8.7,17.4-19.3,13.7l-64.9-22.6c-10.6-3.7-19.2-15.9-19.2-27.1L1587.2,517.8z"/>
<path class="st0" d="M1604.3,276.9c-9.4-6.1-17-2-17,9.2v174.4c0,11.2,8.3,24.3,18.4,29.1l66.8,31.8c10.1,4.8,18.4-0.4,18.4-11.6
	l0.2-155.6c0-11.2-7.6-25.4-17-31.5L1604.3,276.9z"/>
<path class="st0" d="M1238.7,1095.4c-0.1-10.9,8.7-19.8,19.7-19.9l0,0h0.6l77.4,1.8c11.2,0.4,20.2,9.5,20.3,20.8l-0.1,72.1
	c0,11.2-6.9,21-15.3,21.7l-35.6,3l-16.3,1.4l-35.6,3c-8.4,0.7-15.3-7.9-15.3-19.1v-84.8H1238.7z"/>
<path class="st0" d="M1335.6,881.8c11.1,1.8,21.4,12.6,21.4,23.8l-0.2,133.5c0.1,10.8-8.6,19.6-19.5,19.7h-0.9l-77.4-2.5
	c-11.3-0.5-20.3-9.7-20.4-21V886.7c0-11.2,9.1-18.9,20.1-17.2L1335.6,881.8z"/>
<path class="st0" d="M1334.9,625.2c10.6,3.5,22.4,16.6,22.4,27.8l-0.2,193.3c0,11.2-9.1,18.9-20.1,17l-78.2-13.2
	c-11.1-1.9-20.1-12.6-20.1-23.8V613.5c0-11.2,8.7-17.5,19.3-13.9L1334.9,625.2z"/>
<path class="st0" d="M1334.8,382c10.2,4.6,22.7,19.6,22.7,30.9l-0.2,180.1c0,11.2-8.7,17.4-19.3,13.8l-80.1-27.4
	c-10.6-3.6-19.3-15.8-19.3-27V358.2c0-11.2,8.3-16.5,18.5-11.9L1334.8,382z"/>
<path class="st0" d="M323.5,691.8c10.5-3.8,19.2,2.3,19.2,13.5v168.5c0,11.2-9,22.1-20,24.1l-113.5,21.4c-11,2.1-20-5.4-20.1-16.6
	l-0.3-142.5c0-11.2,8.6-23.4,19.2-27.2L323.5,691.8z"/>
<path class="st0" d="M189.5,1104.4c0.1-11.2,9.1-20.4,20.3-20.7l112.5-2.2c11-0.2,20.1,8.5,20.4,19.5v57.4c0,11.2-3.4,20.1-7.6,19.7
	l-28-2.4l-81.9-7l-28-2.4c-4.2-0.4-7.7-9.8-7.7-21V1104.4z"/>
</svg>
