<svg xmlns="http://www.w3.org/2000/svg" viewBox="0 0 1874.39 1541.49"><defs><style>.cls-1{fill:#ffb3c5;}.cls-2{fill:#5c407b;}.cls-3{fill:#f7cc7f;}.cls-4{fill:#f36b80;}.cls-5{fill:#e25a74;}.cls-6{fill:#f2f2f2;}.cls-7{fill:#ea94ad;}.cls-8{fill:#34bed1;}.cls-9{fill:#e1dde7;}.cls-10{fill:#31dae7;}.cls-11{fill:#472a6a;}.cls-12{fill:#fff;}.cls-13{fill:#8b5dd0;}.cls-14{fill:#efefef;}</style></defs><g id="Layer_1" data-name="Layer 1"><path class="cls-1" d="M746.63,581.72c-7.59-24.39-4.19-50.44-20.54-72.32-5.78-7.73-11.77-11.87-17.13-20.29-8.62-13.57-28.63-33.95-34.84-42.4-.87-1.18-2-2.53-1.65-4.08.64-3.19,4.83-5.4,8.34-5.39,3.33,0,5.69,1.82,8.27,3.67,9.11,6.53,26.33,21.87,30.18,17.85,4.54-4.74,3.84-17.9-4.06-42S693.26,357.17,702,355.91s33,65.07,36.76,64.9,1.8-79.5,10.61-83,8,74.31,10.76,77.75,22.08-71.56,29.82-69.43c10.2,2.81-11.84,68-8.15,73.1s23.27-44.55,32.43-47.45-1.45,30.78-9.78,48.52c-6.29,13.41-5.83,55.33-5.18,64.92s-7.49,27.81-4.86,42.93,8.29,20.67,8.29,20.67Q774.64,565.24,746.63,581.72Z"/><path class="cls-2" d="M648.84,866.34l137.83-53.59L728.74,549.88l80.38-26.79s76.76,307,78.21,327.32S723,1024.21,723,1024.21Z"/><path class="cls-1" d="M285.84,548.45c-2.79-13.24-8.59-25.63-12.9-38.45-3.43-10.18-5.85-23.88-4.4-34.7,1.28-9.57,4.49-16.1,5.07-26.07a145.39,145.39,0,0,1,2.65-18.8c1.29-6.75,2.77-13.47,4.22-20.18,1.07-5,2.27-10,2.9-15,.18-1.45.48-3.15-.55-4.36a6,6,0,0,0-3.76-1.82,10,10,0,0,0-6.15,1.17c-2.91,1.63-4.08,4.37-5.43,7.24-2.37,5-4.42,10.22-6.69,15.3-2,4.41-4,9.26-7.13,13-.89,1-2.31,2.49-3.84,2-6.27-1.93-12.07-13.76-16.9-38.62s-9.89-62.76-18.1-59.62,2.9,72.9-.48,74.59S174,335.53,164.62,336.74s29.21,68.8,28.49,73.14-54.15-51.73-59.87-46.1c-7.54,7.42,43.45,53.58,42.73,59.86s-43.45-11.1-52.87-9.17,15.69,18.34,29.69,23.17,36,43.45,40.07,52.14S213,510.42,218,524.9,220.87,547,220.87,547Z"/><path class="cls-3" d="M708.91,1448.34c0,.06,0,.14,0,.23Z"/><path class="cls-4" d="M813.7,1293.08c-3.84-7.72-7.48-14.84-11-21.53-32.11,11.09-68.41,23.4-105.74,36.09l11.92,140.7c-.1-2.93,11.37,42.66,23.9,93.15H873.26C860.27,1454,839.59,1345.45,813.7,1293.08Z"/><path class="cls-5" d="M697,1307.64c-62.2,21.16-119.3,41.43-172.69,60.83,10.85,51,25,116,37.21,173H742.77c1.79-60.49.52-125-5.67-178.31Z"/><path class="cls-6" d="M673.5,867l-44.33.24s-78.49,4.31-92.89,6.15c-1.24.16-25,280.8-26.47,385.53s15.44,186.74,15.44,186.74,100.46-2.81,170.18-17.38c72.49-15.16,166.55-50.7,166.55-50.7S751.44,1126.76,731.7,1066.36,673.5,867,673.5,867Z"/><path class="cls-2" d="M786.71,1071.36,682.39,864.41l-53.58,2.41s48.26,83,76.26,165.8S849,1424,849,1424s41.86,1,50-25S786.71,1071.36,786.71,1071.36Z"/><path class="cls-2" d="M536.64,873.37,386.94,715S282.57,512.17,279.76,505.23,223,514.18,205.9,524.54c-4.61,2.79,89.79,258.28,89.79,258.28l121.74,154s52.51,89.47,54.68,163.14c3.62,122.36-14.2,351.27-8.41,355.88,34.5,16.43,152.07,43.45,170.9,0C700,1304.93,536.64,873.37,536.64,873.37Z"/><path class="cls-1" d="M521.63,792.48l15,80.89s59.7,98.58,89.31,84c24.84-12.21,4.26-87.9,4.26-87.9S622.39,852,616,832c-4.48-14-8.27-29.09-8.23-40.25C607.87,764.59,521.63,792.48,521.63,792.48Z"/><path class="cls-7" d="M607.76,791.73c.11-27.14-70.51,1.67-70.51,1.67l0,7.93a43.47,43.47,0,0,0,10,11.78c19.13,14.94,46.39,21.43,68.65,18.74C611.49,817.93,607.72,802.85,607.76,791.73Z"/><path class="cls-4" d="M618.33,621.61s24,48.73,21.44,86.81-13.92,62.84-13.92,62.84l-81-126.51Z"/><path class="cls-1" d="M511.6,659.1c-2.14-.74-16,109.3,12.58,139.27S608,837.72,627.51,813.71c21.62-26.55,19.4-144.66-24.88-175.35S511.6,659.1,511.6,659.1Z"/><path class="cls-4" d="M512.24,589.85c-27.08,18.23-40.86,32.31-62.19,68.15-26.22,44.07,7.78,97.55,39,121.08s31,50.12,31,50.12l4.87-13.36c3.51-10.82-12.21-57.94-15.09-63.94-7.61-15.84-9.08-19.24-2.62-32.54,5-10.24,3.82-34.35,11.65-51.27l46.6-4s29.26-3.19,45.71-17.89C658.37,604,583.78,540.65,512.24,589.85Z"/><path class="cls-1" d="M516.44,732.78c4,12.79,1.29,25.06-6.14,27.41s-16.73-6.11-20.78-18.9-1.29-25.06,6.14-27.41S512.4,720,516.44,732.78Z"/><path class="cls-7" d="M1325.68,822.93s19.44-216.5,24-260.27-16.77-186.17-17.4-192.34-72-48.28-64.11-54.91,35.33,23.35,42.77,14.38-7-107.12.53-105.68c14.1,2.7,11.23,59.74,18,59.81s-2.71-59.81,8.7-63.64,3.55,57.49,8.56,60,15.39-56.73,25.82-50.45c5.66,3.41-10.55,52.5-2.74,52.41s26.24-35.79,32.37-31.25-19.61,27.91-20.32,48.81-12.38,35.64-3.44,69.19,60.79,154,55.93,225.13-21.21,222.43-21.21,222.43Z"/><polygon class="cls-8" points="1325.81 628.92 1442.03 653.9 1437.68 905.9 1335.58 870.05 1325.81 628.92"/><path class="cls-4" d="M921.71,787.33c35.51,102.36,145.32,74.82,145.37,74.83,3.15.42,13.88,9.54,23.68,14,41.52,18.8,93.78,22.14,127.42-8.19,64.65,22.57,136.4-26.31,140.47-83.65,42.08-19.82,43.8-61.2,33.7-108,19.36-58.77-44.27-121.77-103.76-127.51-30.16-2.91-61.73,7.61-84.75,28-48.27-25.54-106.07-10.77-139.39,33.34C959,560.7,884.54,680.21,921.71,787.33Z"/><path class="cls-9" d="M1597.23,1541.49H1771.7c-.74-6.1-1.33-10.61-1.7-13.27-6.3-45.08-308.37-339.62-308.37-339.62L1308,1349.89s97.57,74,134.13,101.53C1464.71,1468.37,1541.1,1510.25,1597.23,1541.49Z"/><path class="cls-6" d="M1464.78,1541.49c25.88-117.11,43.89-227.07,43.8-227,9.5-28.88-4.38-90.51-4.38-90.51l-159.72-42.61c.64.2,0,6.54-.07,7-6.11,59.52-56.19,132.72-73.36,237-5,30.71-5.49,74.95-4.28,116.1Z"/><path class="cls-10" d="M1492,1011c-2-33,2.09-102.59-.83-113.22q.18-1.29.39-2.64l-121.24-84.83c-.42,0,1.19-.27-2.89.27-26.44,3.5-115.55,30.5-132,38.28l3,113.07c9.79,4.91,81.35,304.08,62.27,334.56-9.32,14.9,235,6,241.87-23.17C1545.57,1260.67,1496,1077.66,1492,1011Z"/><path class="cls-1" d="M1303.16,781.14s10.16,51.5,11.1,72.17,26,84,67.3,78.4-.63-85.4-7.31-104.84-19.46-80.44-19.46-80.44Z"/><path class="cls-7" d="M1361.33,776.38c-10,16.61-27.95,27.23-54.58,24-2-11.08-3.59-19.2-3.59-19.2l51.63-34.71S1357.63,760,1361.33,776.38Z"/><path class="cls-1" d="M1259.93,631.55s-20.89,16.36-25.21,46.08,15.45,102.11,76.65,111.69,78.49-52.34,60-96.28S1318.54,595,1259.93,631.55Z"/><path class="cls-1" d="M1375.58,679.27c.53,11.66-4.31,21.31-10.82,21.55s-12.21-9-12.74-20.68,4.32-21.3,10.83-21.54S1375.05,667.61,1375.58,679.27Z"/><path class="cls-4" d="M1270.51,613.8s.92,91.25-24.56,111.3-8.3,58.19-8.3,58.19-38.06-88.81-20.27-121.53S1270.51,613.8,1270.51,613.8Z"/><path class="cls-1" d="M1263.5,741.86c7.88,9.15,9.51,21,3.65,26.5s-17,2.51-24.9-6.64-9.52-21-3.65-26.51S1255.61,732.7,1263.5,741.86Z"/><path class="cls-7" d="M1278.66,837s-101.54-183.32-126.27-222.31S1063.5,421,1061.21,414.87s45.09-78.95,34.6-81.51-22.3,38.43-33.47,33.47-43.41-103.9-49.82-99c-12,9.11,17.34,61.36,11,64.61S998.11,275,985.6,276.68s23.5,55.67,20,60.41-40.93-46.12-47.8-35.35c-3.73,5.84,34.41,44.39,27,47.95s-41.35-21.37-45-14.25,31.45,17.07,41.86,36.37,28.27,27.72,35.53,63.4S1034.94,600,1072.7,664.5s120.78,207.4,120.78,207.4Z"/><path class="cls-10" d="M1312.41,825.06c-29.36-35.87-104.12-132.63-104.12-132.63S1132,744,1123.78,771.21c0,0,138.38,208.78,128.17,212.89C1252,984.1,1322.34,837.2,1312.41,825.06Z"/><path class="cls-11" d="M1270.41,809.86c-16-43.74-15.21-174.63-53.59-208.56-37.64-33.28-120.74-43.89-161.11-13.65-37.56,28.13-52.15,77.92-67.35,123.82-9.73,29.4-22,47.38-47.13,65C897.4,807.28,773.82,853.38,735.56,890c-70.58,67.59-55,201.73-17.39,252,177.08,237,419,92.63,452.31-62.82C1182,1025.37,1337.83,994.22,1270.41,809.86Z"/><path class="cls-1" d="M872.27,868.48l-83.95-47.56c2.44-8,4.41-14.81,5.78-19.88,14.43-53.24,99.1-234.6,102.63-241.53s106-23.92,99.76-35.22-51.56-1.37-53.74-7.32c-5-13.72,53.82-117.26,44.36-119C969.42,394.77,947,462.76,939,459.75s30.19-68.7,18.58-78.33S927.45,447,920.44,447.75s7.64-73.28-7.39-70.65c-8.16,1.43-11.39,66.14-20.47,62.5s-14.51-53.69-23.73-51.16,10,50,1.34,74.79-1.28,38.72-26.88,73.9S659.08,815.55,675.16,858.44C688.22,893.26,816.83,964,830.86,962.38,884.64,956.11,872.27,868.48,872.27,868.48Z"/><path class="cls-1" d="M1635.38,556.4c-.24-28.24-7.24-82.79-18.34-120-1.81-6.08-32.54-43.53-35.2-47.17s-25-20.78-27.92-7.33c-.85,3.87,18.54,23.31,25.78,30.85-5.91-7.6-35-29.79-40.09-27.89-9.9,3.7,22,39.1,32.21,48.25,8.2,7.32,5.58,37.3,4.21,49-.49,4.13-4,15.24-2.68,11.29.24-.72-6.58-18.1-9.16-27.38-1.7-6.11-6.25-9-9.57-5.81-8.26,7.94-1.45,61.52,2.37,69.22,4.53,9.11,15.79,25,20.08,31.06,0,0-36.55,264.57-46,268.92-22,10.17-219.95,66-219.95,66s-4.87,124.81.53,121.54,278.07-96.32,295.52-118.84c25.24-32.56,31.32-180,27.27-278.47C1634.28,580.8,1635.41,556.56,1635.38,556.4Z"/><path class="cls-7" d="M1607.5,488.09l2.78,2.9a12.54,12.54,0,0,1-.12,10.38c-1.54,3-3.66,3.16-16.54,5.06-9.31,1.39-21.24-.24-39.1-2.89Z"/><path class="cls-11" d="M1610,490.2l-39.73-112.46a7.05,7.05,0,0,0-8.83-4.18L1557,375l0,0v0l-40,15a5.55,5.55,0,0,0-3.35,7.19l42.87,109.17,38.32-4.31h0l10.83-3.49A6.59,6.59,0,0,0,1610,490.2Z"/><path class="cls-1" d="M1549.81,460.57a99.47,99.47,0,0,0-9.65,30.17c-2.42,16.9,25.7,56.61,30.77,60.47s4.71-20.15,4.71-20.15,3.38-21.73-1.93-24.38-13.52-12.31-13.52-12.31S1565,443.92,1549.81,460.57Z"/><path class="cls-1" d="M1606.42,448.14,1597,426.42s-21.72-39.47-34.76-34S1588,433.66,1588,433.66a627.61,627.61,0,0,1,23.48,65.84l5.85-11.89Z"/><path class="cls-2" d="M1274.84,1541.49l-37.44-110.3L965.85,1403s-50.72,94.85-67.13,138.54Z"/><path class="cls-4" d="M1436.71,995.19l-36.94-131.08-223.5,27.58s-62.77-4-96.57-3c-24,.76-168.17-29.62-259-52.09-.52,1.2-27.78,88.29-43.71,118.71,68.17,34.12,120.31,50.87,167.28,91.24,0,.17,6,193.31,10.74,311.8-10.2,29.44-35.87,89.08-35.87,89.08s83.63,47.8,210.72,36.93c75.82-6.48,131.43-23.89,131.43-23.89s-23.45-84.83-29.72-134.34c27.3-121.44,71.16-283.2,71.16-283.2Z"/><path class="cls-1" d="M1099,781.37s-7.17,82.79-16.41,105.73-7.84,105.45,42.08,120.34,49-91,51.1-115.51,4.34-104.76,4.34-104.76Z"/><path class="cls-7" d="M1096.52,806.49a90.38,90.38,0,0,0,18,15c24.19,15.4,46.36,15.18,64.37,6,.77-21.86,1.29-40.24,1.29-40.24l-81.11-5.8S1098.11,791.9,1096.52,806.49Z"/><path class="cls-1" d="M1126.74,612.81s-30,6.77-48.57,35.07-32,117.3,29.06,156.18,109.32-21.81,110.1-75.46S1206.63,603.35,1126.74,612.81Z"/><path class="cls-1" d="M1235.21,705.3c-1.33,13.89-9,24.53-17.06,23.75s-13.58-12.66-12.25-26.55,9-24.53,17.07-23.75S1236.54,691.41,1235.21,705.3Z"/><path class="cls-11" d="M1138.65,605.74s-38.29,85.88-71.92,93.55-33.15,50.88-33.15,50.88.75-99.79,32.27-122.68S1138.65,605.74,1138.65,605.74Z"/><path class="cls-1" d="M1081.06,719.55c4.43,14,.37,27.68-9,30.68s-20.66-5.89-25.09-19.84-.37-27.68,9-30.67S1076.63,705.61,1081.06,719.55Z"/><path class="cls-7" d="M938.94,518.27s-33.5-22.26-52.86,6.91C886.08,525.18,910.63,506.28,938.94,518.27Z"/><polygon class="cls-6" points="1225.17 201.24 1225.81 222.74 1191.33 227.59 1188.38 259.14 1163.17 266.98 1167.15 279.74 1200.86 269.25 1203.65 239.35 1239.52 234.31 1238.57 201.96 1225.17 201.24"/><path class="cls-10" d="M1388.92,141.09l-119.55-22.26a26,26,0,0,1-20.78-30.29l12.54-67.32A26,26,0,0,1,1291.42.44L1411,22.71A26,26,0,0,1,1431.74,53l-12.54,67.32A26,26,0,0,1,1388.92,141.09Z"/><polygon class="cls-10" points="1260.19 55.27 1199.98 98.1 1264.92 97.58 1260.19 55.27"/><path class="cls-12" d="M1307.46,56.16l15.38,2.46s21.9-11,23.4-16,.26-16.35,3.5-17.17,9.78-.76,12.58,6.71c2,5.42-3.58,22.88-2,24.4,1,.95,9.79,2.61,16.24,3.72a11.56,11.56,0,0,1,9,7.86h0a6.17,6.17,0,0,1-2.8,7.23l-3.93,2.25,2,4a6.16,6.16,0,0,1-2.68,8.26l-3.06,1.57,1.47,2.44a6.15,6.15,0,0,1-2.68,8.77l-2.7,1.25.24.73a6.16,6.16,0,0,1-3.39,7.59l-2.7,1.16-41-6.56a28.57,28.57,0,0,1-10.79-4.09l-14-4.69a3.21,3.21,0,0,1-2.14-3.6l6.28-35.76A3.22,3.22,0,0,1,1307.46,56.16Z"/><path class="cls-6" d="M1821.68,356.28l6.73-15.59-9-14.39a2.34,2.34,0,0,1,2.2-3.57l16.91,1.59,10.89-13a2.33,2.33,0,0,1,4.07,1l3.72,16.58,15.76,6.33a2.33,2.33,0,0,1,.32,4.17L1858.63,348,1857.48,365a2.33,2.33,0,0,1-3.87,1.59l-12.75-11.22-16.47,4.14A2.33,2.33,0,0,1,1821.68,356.28Z"/><path class="cls-4" d="M23.26,445.9,15.36,435l-13.46.34A1.85,1.85,0,0,1,.36,432.4l7.92-10.89L3.8,408.82a1.85,1.85,0,0,1,2.32-2.38l12.8,4.17,10.69-8.18a1.85,1.85,0,0,1,3,1.47v13.46L43.66,425a1.85,1.85,0,0,1-.48,3.28l-12.81,4.16-3.84,12.9A1.85,1.85,0,0,1,23.26,445.9Z"/><polygon class="cls-6" points="1688.54 275.73 1688.97 293.53 1660.41 297.38 1657.83 323.47 1636.93 329.84 1640.16 340.42 1668.11 331.9 1670.56 307.17 1700.27 303.17 1699.62 276.39 1688.54 275.73"/><polygon class="cls-10" points="1602.99 313.9 1585.79 309.97 1589.05 281.59 1564.6 272.74 1563.57 251.1 1552.62 251.62 1554 280.56 1577.17 288.95 1573.77 318.47 1599.66 324.38 1602.99 313.9"/><polygon class="cls-10" points="1762.41 423.29 1750.12 402.86 1730.37 413.04 1717.38 393.45 1697.3 400.84 1685.18 387.77 1678.57 393.91 1694.78 411.39 1713.8 404.38 1727.32 424.76 1746.74 414.75 1757.88 433.26 1762.41 423.29"/><path class="cls-6" d="M90.46,360l-13-18.85-22.92,0A3.15,3.15,0,0,1,52,336.15l13.9-18.23-7.13-21.78a3.16,3.16,0,0,1,4-4l21.63,7.59,18.51-13.51a3.15,3.15,0,0,1,5,2.62l-.54,22.91L126,325.23a3.15,3.15,0,0,1-.95,5.57l-22,6.57-7,21.81A3.15,3.15,0,0,1,90.46,360Z"/><polygon class="cls-6" points="641.8 359.37 638.93 351.95 657.07 344.92 644.14 322.14 651.07 318.21 668.55 349.02 641.8 359.37"/><polygon class="cls-10" points="286.94 256.94 262.29 265.08 244.8 226.87 207.29 234.32 189.53 207.86 176.13 216.85 199.89 252.25 235.44 245.18 253.63 284.94 290.72 272.68 286.94 256.94"/><path class="cls-4" d="M1102.58,184.26l-36.31-13.64-31.82,22.19a5.33,5.33,0,0,1-8.37-4.61l1.74-38.75L996.89,126a5.33,5.33,0,0,1,1.8-9.39l37.39-10.31,12.7-36.65a5.33,5.33,0,0,1,9.49-1.19l21.36,32.38,38.78.75a5.33,5.33,0,0,1,4.07,8.65l-24.19,30.33,11.26,37.11A5.33,5.33,0,0,1,1102.58,184.26Z"/><polygon class="cls-10" points="160.33 567.94 133.21 569.02 122.54 594.56 92.06 593.62 89.08 624.33 54.57 624.79 48.34 652.72 15.2 658.59 12.98 646.05 37.75 641.66 44.33 612.18 77.51 611.74 80.53 580.52 114.17 581.56 124.59 556.62 149.72 555.62 153.14 537.81 165.65 540.21 160.33 567.94"/><ellipse class="cls-13" cx="427.95" cy="450.39" rx="56.76" ry="56.77" transform="translate(-171.36 286.63) rotate(-31.18)"/><path class="cls-14" d="M398.64,462.33a30.35,30.35,0,1,0,60.4-6Z"/><path class="cls-4" d="M858.35,218.3,842,195l-9.22,9.09a5.14,5.14,0,0,1-7.26,0h0a5.13,5.13,0,0,1,0-7.26l10.63-10.49-14.73-20.9-9.85,9.72a5.14,5.14,0,0,1-7.26-.05h0a5.13,5.13,0,0,1,0-7.26l11.26-11.11-16.79-24.13a5.13,5.13,0,0,1,.61-6.59l1.72-1.69A5.12,5.12,0,0,1,809,125l15.93,22.58,16.33-16.11-16.79-24.13a5.15,5.15,0,0,1,.6-6.59l1.88-1.85a5.13,5.13,0,0,1,7.8.69l15.92,22.58,9.22-9.1a5.13,5.13,0,0,1,7.26,0h0a5.13,5.13,0,0,1,0,7.26l-10.63,10.49,14.89,20.74,9.85-9.71a5.14,5.14,0,0,1,7.26,0h0a5.13,5.13,0,0,1-.05,7.26l-11.26,11.11L894.51,185a5.12,5.12,0,0,1-.6,6.6l-2,2a5.12,5.12,0,0,1-7.8-.7l-16.39-23.33-16.32,16.11,17.37,24.74a5.15,5.15,0,0,1-.59,6.61l-2,2A5.14,5.14,0,0,1,858.35,218.3Zm3.57-57.44L847.18,140l-16.33,16.11L845.59,177Z"/><path class="cls-4" d="M492.48,177.64a36.09,36.09,0,0,1,22.82-20.88c15.85-5.1,30.82,4,35.54,18.65,5.46,17-3,41.85-36,71.74-44.27-5-65.61-20.32-71.08-37.3-4.72-14.67,2.15-30.77,18-35.87A36.06,36.06,0,0,1,492.48,177.64Z"/><path class="cls-4" d="M363.64,226.48a370.5,370.5,0,0,0,41.63-8.59c4.14-1.11,11.64-1.8,13.56-6.11,1-2.24.63-4.54-1.53-6-4-2.62-9.83.39-14,1.5-12.71,3.38-27.25,6.6-42.13,9-2.79.45-4.48,3.73-3.85,6.32.72,3,3.52,4.27,6.32,3.85Z"/><path class="cls-4" d="M584.43,202.73c6.11-1.52,12.19-3.15,18.27-4.76,5.81-1.54,13-2.34,17.94-5.78,3.68-2.54,2.63-8-2.06-8.44-6.06-.52-12.57,2.28-18.4,3.85-6.08,1.62-12.16,3.23-18.21,5-6.47,1.84-4.1,11.8,2.46,10.17Z"/><path class="cls-4" d="M440.76,291.3c4.26-14.83,12.52-21.22,18.33-28a4.23,4.23,0,0,0-4.94-6.73c-12.22,5.37-20,19.63-23.42,31.91-1.78,6.46,8.18,9.29,10,2.83Z"/><path class="cls-4" d="M519.34,305a46.32,46.32,0,0,1-1.78-19.08c.48-4,5.1-15.87-2.54-15.87-7.2,0-7.91,12-8.29,17.11a54.6,54.6,0,0,0,2.4,20.32c2,6.42,12.18,4,10.21-2.48Z"/><path class="cls-4" d="M560.88,253.13l12.08,4.7c4,1.56,8.18,4.28,12.4,2.2,2.37-1.16,2.69-3.93,1.81-6.12-1.6-4-7.63-5-11.31-6.39l-12.1-4.63c-2.68-1-5.83,1.09-6.56,3.67-.84,3,1,5.52,3.68,6.57Z"/><path class="cls-4" d="M440.86,151.31c-21.07-27.69-20.86-27.92-24.14-29.79s-7.79,1.14-6.79,5,.9,3.19,23.17,32.25c1.78,2.31,5.69,2,7.62.14,2.29-2.22,1.9-5.29.14-7.62Z"/><path class="cls-4" d="M496.27,136.42a80.12,80.12,0,0,0,.18-17.1c-.52-5.31-.59-13.51-6.25-15.81a4,4,0,0,0-4,1c-3.56,4.07-.84,10.76-.39,15.66a94.77,94.77,0,0,1,0,16.07c-.22,2.81,2.41,5.26,5.11,5.31,3,.05,5-2.31,5.3-5.12Z"/><path class="cls-4" d="M576,121c.28-2.6-2.21-4.34-4.46-4.62-4.62-.56-9.06,5-12,8A91.07,91.07,0,0,0,550,135.63c-1.65,2.31-.45,5.84,1.84,7.2,2.69,1.59,5.47.41,7.2-1.85C570.42,126.24,575.25,127.42,576,121Z"/><polygon class="cls-6" points="745.23 189.43 745.65 207.22 717.1 211.07 714.51 237.17 693.61 243.54 696.84 254.12 724.79 245.59 727.24 220.87 756.95 216.86 756.31 190.09 745.23 189.43"/></g></svg>