<svg xmlns="http://www.w3.org/2000/svg" viewBox="0 0 80.16 80.16"><defs><style>.cls-1{isolation:isolate;}.cls-2{fill:#ea4134;}.cls-3{mix-blend-mode:multiply;}.cls-4{fill:#ccc;}.cls-5{fill:#4b4c56;}.cls-6{fill:#fff;}.cls-7{fill:#fcb116;}</style></defs><g class="cls-1"><g id="Layer_1" data-name="Layer 1"><path class="cls-2" d="M80.16,40.08A40.08,40.08,0,1,1,40.08,0,40.07,40.07,0,0,1,80.16,40.08Z"/><g class="cls-3"><path class="cls-4" d="M80.16,40.08A40,40,0,0,0,62.23,6.68L56.55,18.05A27.63,27.63,0,0,0,21,60.14c.19.2.39.4.59.59s.39.4.59.59S40.75,80,41,80.14A40.07,40.07,0,0,0,80.16,40.08Z"/></g><path class="cls-5" d="M40.19,12.68A27.64,27.64,0,1,0,67.83,40.31,27.64,27.64,0,0,0,40.19,12.68Zm0,51.43A23.8,23.8,0,1,1,64,40.31,23.8,23.8,0,0,1,40.19,64.11Z"/><path class="cls-6" d="M40.19,15.59A24.73,24.73,0,1,0,64.92,40.31,24.73,24.73,0,0,0,40.19,15.59Zm0,46A21.29,21.29,0,1,1,61.48,40.31,21.29,21.29,0,0,1,40.19,61.6Z"/><polygon class="cls-7" points="44.52 56.89 25.38 32.48 33.57 26.53 43.71 43.75 64.92 1.29 72.54 7.73 44.52 56.89"/></g></g></svg>