<svg xmlns="http://www.w3.org/2000/svg" viewBox="0 0 80.16 80.16"><defs><style>.cls-1{isolation:isolate;}.cls-2{fill:#9fb83b;}.cls-3{mix-blend-mode:multiply;}.cls-4{fill:#ccc;}.cls-5{fill:#010101;}.cls-6{fill:#fff;}.cls-7{fill:#484848;}.cls-8{fill:#676767;}.cls-9{fill:#f3f3f3;}.cls-10{fill:#ea4134;}</style></defs><g class="cls-1"><g id="Layer_1" data-name="Layer 1"><path class="cls-2" d="M80.16,40.08A40.08,40.08,0,1,1,40.08,0,40.07,40.07,0,0,1,80.16,40.08Z" transform="translate(0 0)"/><g class="cls-3"><path class="cls-4" d="M80,43.56C74.8,38.33,54.57,18.17,54.3,17.92s-.51-.53-.78-.78-.52-.54-.79-.79a12.3,12.3,0,0,0-.95-1h0A13.22,13.22,0,0,0,49.86,14h0a14.52,14.52,0,0,0-2-1h0a16.26,16.26,0,0,0-2.06-.72l0,0-1-.25h-.08l-.92-.19h-.06l-.9-.13-.14,0-.81-.08h0c-.27,0-.53,0-.79-.05H39.2l-.78,0h-.06l-.8.08-.14,0-.9.13-.06,0-.92.18h-.08l-1,.25,0,0a19.2,19.2,0,0,0-2.05.71l0,0a14.87,14.87,0,0,0-2,1h0a13.34,13.34,0,0,0-1.9,1.41h0a12.91,12.91,0,0,0-1.69,1.83h0a12.5,12.5,0,0,0-1.37,2.29h0a17.55,17.55,0,0,0-1.51,7.55c0,12.11,8,14.88,9.32,24.39a1.94,1.94,0,0,0-1.81,1.78,1.74,1.74,0,0,0,1,1.48,1.92,1.92,0,0,0,.37.49,1.82,1.82,0,0,0-1.33,1.65,1.76,1.76,0,0,0,1,1.5,1.7,1.7,0,0,0,.36.45A1.84,1.84,0,0,0,31.3,60.5a1.72,1.72,0,0,0,1,1.48,1.72,1.72,0,0,0,.37.48,1.84,1.84,0,0,0-1.33,1.66,1.77,1.77,0,0,0,1,1.51,2,2,0,0,0,.78.78c.14.25,9.14,9.29,13.09,13.16A40.09,40.09,0,0,0,80,43.56Z" transform="translate(0 0)"/></g><path class="cls-5" d="M47,63.18c0,3-4.1,5.43-6.87,5.43s-6.87-2.43-6.87-5.43,4.11-5.43,6.87-5.43S47,60.18,47,63.18Z" transform="translate(0 0)"/><path class="cls-6" d="M40.08,11.55c-5.29,0-16.29,2.18-16.29,15.67,0,13.19,9.51,15.29,9.51,27.07s6.78,0,6.78,0,6.79,11.78,6.79,0,9.5-13.88,9.5-27.07C56.37,13.73,45.37,11.55,40.08,11.55Z" transform="translate(0 0)"/><path class="cls-7" d="M48.86,57a2,2,0,0,1-2.17,1.81H33.47A2,2,0,0,1,31.3,57h0a2,2,0,0,1,2.17-1.81H46.69A2,2,0,0,1,48.86,57Z" transform="translate(0 0)"/><path class="cls-8" d="M48.86,60.63a2,2,0,0,1-2.17,1.81H33.47a2,2,0,0,1-2.17-1.81h0a2,2,0,0,1,2.17-1.81H46.69a2,2,0,0,1,2.17,1.81Z" transform="translate(0 0)"/><path class="cls-7" d="M48.86,64.25a2,2,0,0,1-2.17,1.82H33.47a2,2,0,0,1-2.17-1.82h0a2,2,0,0,1,2.17-1.81H46.69a2,2,0,0,1,2.17,1.81Z" transform="translate(0 0)"/><path class="cls-9" d="M25.3,19.67a22.39,22.39,0,0,0,29.56,0c-3.2-6.82-10.7-8.12-14.78-8.12S28.5,12.86,25.3,19.67Z" transform="translate(0 0)"/><path class="cls-8" d="M48.86,53.39a2,2,0,0,1-2.17,1.81H33.47a2,2,0,0,1-2.17-1.81h0a2,2,0,0,1,2.17-1.81H46.69a2,2,0,0,1,2.17,1.81Z" transform="translate(0 0)"/><path class="cls-10" d="M43.41,37a2.94,2.94,0,0,0-.75-2.1A7.33,7.33,0,0,0,40,33.41a14.83,14.83,0,0,1-5.36-2.84A5.89,5.89,0,0,1,32.87,26a5.93,5.93,0,0,1,1.75-4.43,7.56,7.56,0,0,1,4.74-2V16.13h2.55v3.48a7.13,7.13,0,0,1,4.52,2.25A6.79,6.79,0,0,1,48,26.68l0,.08H43.41a4.05,4.05,0,0,0-.79-2.69,3.24,3.24,0,0,0-4.4-.15A3.12,3.12,0,0,0,37.55,26a2.76,2.76,0,0,0,.71,2A8.73,8.73,0,0,0,41,29.59a13.79,13.79,0,0,1,5.32,2.83A6,6,0,0,1,48.08,37a5.93,5.93,0,0,1-1.74,4.47,7.75,7.75,0,0,1-4.75,2v3.16H39V43.45a8.48,8.48,0,0,1-5.06-2,6.41,6.41,0,0,1-1.91-5.2l0-.09h4.55a3.7,3.7,0,0,0,1,2.92,3.82,3.82,0,0,0,2.6.87,3.21,3.21,0,0,0,2.36-.77A2.81,2.81,0,0,0,43.41,37Z" transform="translate(0 0)"/></g></g></svg>